<svg version="1.0" xmlns="http://www.w3.org/2000/svg" width="752" height="752" viewBox="0 0 564 564"><path d="M266.5 24.1c-6.6 1-14 2.1-16.5 2.4-8.9 1.2-16.7 2.4-20 3-1.4.3-4.7.7-7.5 1-2.7.4-6.3.8-8 1-7.3 1-10.3 1.5-14 2.1-2.2.4-5.1.8-6.5 1-7.6.9-11.7 1.4-13.5 1.8-1.1.2-4 .7-6.5 1-2.5.3-5.6.8-7 1-2.2.4-20.5 3-29.5 4.2-1.6.2-4.3.6-6 .8-3.4.6-6.6 1-18 2.6-4.4.6-9.1 1.3-10.5 1.5-2.5.4-7.2 1.1-14 2-6.1.9-11.4 1.6-14 2l-14 2c-6.3.9-12.6 1.9-14 2.1-1.4.3-4.5.7-7 .9-2.5.3-5.4.7-6.5.9-1.1.3-4.2.8-7 1.1-2.7.3-6 .8-7.3 1.1-1.2.2-4.1.7-6.5 1-2.3.2-5.1.6-6.2.9-1.1.2-2.6.4-3.2.4-1 .1-1.2 37.3-1 180.1l.2 180.1 6 2.6c3.3 1.4 7.4 3.1 9 3.8 1.7.7 5 2.2 7.5 3.3 2.5 1.1 9 3.9 14.5 6.2 5.5 2.3 11.8 5 14 6 13.6 6 21.1 9.2 22 9.4.6.1 3 1.2 5.5 2.3 2.5 1.2 5.2 2.3 6 2.5.8.2 1.7.5 2 .8.3.3 4.1 2 8.5 3.9s10.4 4.5 13.3 5.8c2.9 1.2 5.4 2.3 5.6 2.3.2 0 2.5 1 5.2 2.2 2.7 1.2 5.1 2.3 5.4 2.3.6.2 6.9 2.9 11.5 5 1.7.7 15.8 6.8 31.5 13.5 32.7 13.9 45.8 19.5 51.5 22 2.2 1 9 3.9 15 6.4 6.1 2.6 11.9 5.1 13 5.6 20.7 9.4 32.6 13.9 34.7 13.1 2.3-.9 7.5-3.1 17.3-7.5 4.4-2 8.1-3.6 19-8.1 1.7-.7 5.3-2.3 8-3.4 2.8-1.2 5.9-2.6 7-3.1 1.1-.4 4.6-2 7.8-3.4s6-2.6 6.3-2.6c.3 0 3-1.1 6-2.5s8.2-3.6 11.7-5c3.4-1.4 7.1-3 8.2-3.5 6.6-3 25.4-11.1 26.5-11.5 1.4-.5 6.9-2.8 10.5-4.4 10.2-4.7 13.5-6.1 14-6.1.2 0 2.8-1.1 5.7-2.4 2.9-1.3 8.2-3.6 11.8-5.1 3.6-1.5 7.3-3.1 8.2-3.6 1-.5 2.4-.9 3.1-.9.7 0 1.8-.5 2.5-1.2.6-.6 1.8-1.3 2.5-1.4 1.2-.2 4.5-1.5 15.2-6.5 2.8-1.2 5.5-2.4 6-2.5.6-.1 3.6-1.3 6.7-2.8 6.5-3 10.1-4.4 10.8-4.3.3.1 1.9-.6 3.5-1.5 3.3-1.8 8.3-4 18.5-8.3 3.6-1.5 8.4-3.6 10.7-4.6 2.3-1 4.4-1.9 4.6-1.9.3 0 3.1-1.2 6.3-2.7 3.3-1.5 6.1-2.8 6.4-2.8.3-.1 2.3-.9 4.5-1.9 2.2-1 5-2.2 6.3-2.7l2.2-.9V62.1l-3.2-.5c-9.8-1.6-22.6-3.5-28-4-4.7-.5-9.2-1.2-13.8-2.1-1.4-.3-4.5-.7-7-1-5-.6-11.9-1.5-20.5-2.9-1.6-.2-6.6-1-11-1.6-13.9-1.9-14.9-2.1-17.6-2.5-2.5-.5-4.3-.7-14.4-2-2.7-.4-6.1-.8-7.5-1.1-1.4-.2-4.5-.6-7-1-2.5-.3-7-.9-10-1.4-3-.5-7.7-1.2-10.5-1.5-2.7-.4-5.7-.8-6.5-1-.8-.3-4-.7-7-1-3-.3-6.8-.8-8.5-1.2-1.6-.3-4.1-.7-5.5-.8-2.2-.3-5-.7-13.5-1.9-1.1-.2-4.7-.7-8-1.1-3.3-.4-6.9-.9-8-1.1-1.1-.2-4-.7-6.5-1-2.5-.3-5.6-.7-6.9-.9-1.3-.2-4.5-.7-7-1.1-2.5-.3-5.7-.8-7.1-1-1.4-.2-4.5-.6-7-1-2.5-.3-7-.9-10-1.4-3-.5-7.7-1.2-10.4-1.5-2.7-.3-5.2-.8-5.6-1-2.1-1.3-17.1-1-27.5.6z"/></svg>