<?xml version="1.0" standalone="no"?>
<!DOCTYPE svg PUBLIC "-//W3C//DTD SVG 20010904//EN"
 "http://www.w3.org/TR/2001/REC-SVG-20010904/DTD/svg10.dtd">
<svg version="1.0" xmlns="http://www.w3.org/2000/svg"
 width="564.000000pt" height="564.000000pt" viewBox="0 0 564.000000 564.000000"
 preserveAspectRatio="xMidYMid meet">
<metadata>
Created by potrace 1.11, written by Peter Selinger 2001-2013
</metadata>
<g transform="translate(0.000000,564.000000) scale(0.100000,-0.100000)"
fill="#000000" stroke="none">
<path d="M2665 5399 c-66 -10 -140 -21 -165 -24 -89 -12 -167 -24 -200 -30
-14 -3 -47 -7 -75 -10 -27 -4 -63 -8 -80 -10 -73 -10 -103 -15 -140 -21 -22
-4 -51 -8 -65 -10 -76 -9 -117 -14 -135 -18 -11 -2 -40 -7 -65 -10 -25 -3 -56
-8 -70 -10 -22 -4 -205 -30 -295 -42 -16 -2 -43 -6 -60 -8 -34 -6 -66 -10
-180 -26 -44 -6 -91 -13 -105 -15 -25 -4 -72 -11 -140 -20 -61 -9 -114 -16
-140 -20 -14 -2 -77 -11 -140 -20 -63 -9 -126 -19 -140 -21 -14 -3 -45 -7 -70
-9 -25 -3 -54 -7 -65 -9 -11 -3 -42 -8 -70 -11 -27 -3 -60 -8 -73 -11 -12 -2
-41 -7 -65 -10 -23 -2 -51 -6 -62 -9 -11 -2 -26 -4 -32 -4 -10 -1 -12 -373
-10 -1801 l2 -1801 60 -26 c33 -14 74 -31 90 -38 17 -7 50 -22 75 -33 25 -11
90 -39 145 -62 55 -23 118 -50 140 -60 136 -60 211 -92 220 -94 6 -1 30 -12
55 -23 25 -12 52 -23 60 -25 8 -2 17 -5 20 -8 3 -3 41 -20 85 -39 44 -19 104
-45 133 -58 29 -12 54 -23 56 -23 2 0 25 -10 52 -22 27 -12 51 -23 54 -23 6
-2 69 -29 115 -50 17 -7 158 -68 315 -135 327 -139 458 -195 515 -220 22 -10
90 -39 150 -64 61 -26 119 -51 130 -56 207 -94 326 -139 347 -131 23 9 75 31
173 75 44 20 81 36 190 81 17 7 53 23 80 34 28 12 59 26 70 31 11 4 46 20 78
34 32 14 60 26 63 26 3 0 30 11 60 25 30 14 82 36 117 50 34 14 71 30 82 35
66 30 254 111 265 115 14 5 69 28 105 44 102 47 135 61 140 61 2 0 28 11 57
24 29 13 82 36 118 51 36 15 73 31 82 36 10 5 24 9 31 9 7 0 18 5 25 12 6 6
18 13 25 14 12 2 45 15 152 65 28 12 55 24 60 25 6 1 36 13 67 28 65 30 101
44 108 43 3 -1 19 6 35 15 33 18 83 40 185 83 36 15 84 36 107 46 23 10 44 19
46 19 3 0 31 12 63 27 33 15 61 28 64 28 3 1 23 9 45 19 22 10 50 22 63 27
l22 9 0 1799 0 1800 -32 5 c-98 16 -226 35 -280 40 -47 5 -92 12 -138 21 -14
3 -45 7 -70 10 -50 6 -119 15 -205 29 -16 2 -66 10 -110 16 -139 19 -149 21
-176 25 -25 5 -43 7 -144 20 -27 4 -61 8 -75 11 -14 2 -45 6 -70 10 -25 3 -70
9 -100 14 -30 5 -77 12 -105 15 -27 4 -57 8 -65 10 -8 3 -40 7 -70 10 -30 3
-68 8 -85 12 -16 3 -41 7 -55 8 -22 3 -50 7 -135 19 -11 2 -47 7 -80 11 -33 4
-69 9 -80 11 -11 2 -40 7 -65 10 -25 3 -56 7 -69 9 -13 2 -45 7 -70 11 -25 3
-57 8 -71 10 -14 2 -45 6 -70 10 -25 3 -70 9 -100 14 -30 5 -77 12 -104 15
-27 3 -52 8 -56 10 -21 13 -171 10 -275 -6z"/>
</g>
</svg>
